<svg width="400" height="400" viewBox="0 0 400 400" xmlns="http://www.w3.org/2000/svg">
  <!-- Background -->
  <defs>
    <radialGradient id="cargoBg2" cx="50%" cy="50%" r="50%">
      <stop offset="0%" style="stop-color:#f5f5f5"/>
      <stop offset="100%" style="stop-color:#e0e0e0"/>
    </radialGradient>
  </defs>
  
  <rect width="400" height="400" fill="url(#cargoBg2)"/>
  
  <!-- Cargo Pants Silhouette -->
  <path d="M150 60 L250 60 L250 80 L260 80 L260 200 L270 200 L270 360 L240 360 L240 340 L230 340 L230 360 L200 360 L200 340 L170 340 L170 360 L160 360 L160 340 L130 340 L130 200 L140 200 L140 80 L150 80 Z" 
        fill="#fff" 
        stroke="#ddd" 
        stroke-width="2"/>
  
  <!-- Explorer Pockets -->
  <rect x="160" y="120" width="25" height="30" fill="#f8f8f8" stroke="#ccc" stroke-width="1"/>
  <rect x="215" y="120" width="25" height="30" fill="#f8f8f8" stroke="#ccc" stroke-width="1"/>
  <rect x="160" y="180" width="25" height="35" fill="#f8f8f8" stroke="#ccc" stroke-width="1"/>
  <rect x="215" y="180" width="25" height="35" fill="#f8f8f8" stroke="#ccc" stroke-width="1"/>
  
  <!-- Utility Details -->
  <circle cx="172" cy="135" r="3" fill="#999"/>
  <circle cx="227" cy="135" r="3" fill="#999"/>
  <rect x="165" y="190" width="15" height="2" fill="#aaa"/>
  <rect x="220" y="190" width="15" height="2" fill="#aaa"/>
  
  <!-- Explorer Badge -->
  <polygon points="200,140 205,150 195,150" fill="#333"/>
  <text x="200" y="165" text-anchor="middle" fill="#333" font-family="Arial, sans-serif" font-size="8" font-weight="bold">EXPLORE</text>
  
  <!-- Brand Text -->
  <text x="200" y="320" text-anchor="middle" fill="#333" font-family="Arial, sans-serif" font-size="14" font-weight="bold" opacity="0.7">URBAN EXPLORER</text>
  <text x="200" y="340" text-anchor="middle" fill="#666" font-family="Arial, sans-serif" font-size="10" opacity="0.5">VERSATILE CARGO</text>
</svg>
