<svg width="400" height="400" viewBox="0 0 400 400" xmlns="http://www.w3.org/2000/svg">
  <!-- Background -->
  <defs>
    <linearGradient id="cargoBg3" x1="0%" y1="0%" x2="100%" y2="100%">
      <stop offset="0%" style="stop-color:#000"/>
      <stop offset="25%" style="stop-color:#fff"/>
      <stop offset="50%" style="stop-color:#000"/>
      <stop offset="75%" style="stop-color:#fff"/>
      <stop offset="100%" style="stop-color:#000"/>
    </linearGradient>
  </defs>
  
  <rect width="400" height="400" fill="url(#cargoBg3)"/>
  
  <!-- Cargo Pants Silhouette -->
  <path d="M150 60 L250 60 L250 80 L260 80 L260 200 L270 200 L270 360 L240 360 L240 340 L230 340 L230 360 L200 360 L200 340 L170 340 L170 360 L160 360 L160 340 L130 340 L130 200 L140 200 L140 80 L150 80 Z" 
        fill="#2a2a2a" 
        stroke="#fff" 
        stroke-width="3"/>
  
  <!-- Monochrome Utility Pockets -->
  <rect x="160" y="120" width="25" height="30" fill="#fff" stroke="#000" stroke-width="2"/>
  <rect x="215" y="120" width="25" height="30" fill="#000" stroke="#fff" stroke-width="2"/>
  <rect x="160" y="180" width="25" height="35" fill="#000" stroke="#fff" stroke-width="2"/>
  <rect x="215" y="180" width="25" height="35" fill="#fff" stroke="#000" stroke-width="2"/>
  
  <!-- Contrast Details -->
  <rect x="165" y="125" width="15" height="3" fill="#000"/>
  <rect x="220" y="125" width="15" height="3" fill="#fff"/>
  <circle cx="172" cy="200" r="4" fill="#fff"/>
  <circle cx="227" cy="200" r="4" fill="#000"/>
  
  <!-- Utility Text -->
  <text x="200" y="260" text-anchor="middle" fill="#fff" font-family="Arial, sans-serif" font-size="12" font-weight="900">UTILITY</text>
  
  <!-- Brand Text -->
  <text x="200" y="320" text-anchor="middle" fill="#fff" font-family="Arial, sans-serif" font-size="14" font-weight="bold" opacity="0.7">MONOCHROME</text>
  <text x="200" y="340" text-anchor="middle" fill="#ccc" font-family="Arial, sans-serif" font-size="10" opacity="0.5">LIMITED UTILITY</text>
</svg>
