<svg width="400" height="400" viewBox="0 0 400 400" xmlns="http://www.w3.org/2000/svg">
  <!-- Background -->
  <defs>
    <radialGradient id="cargoBg1" cx="50%" cy="50%" r="50%">
      <stop offset="0%" style="stop-color:#1a1a1a"/>
      <stop offset="100%" style="stop-color:#000000"/>
    </radialGradient>
  </defs>
  
  <rect width="400" height="400" fill="url(#cargoBg1)"/>
  
  <!-- Cargo Pants Silhouette -->
  <path d="M150 60 L250 60 L250 80 L260 80 L260 200 L270 200 L270 360 L240 360 L240 340 L230 340 L230 360 L200 360 L200 340 L170 340 L170 360 L160 360 L160 340 L130 340 L130 200 L140 200 L140 80 L150 80 Z" 
        fill="#000" 
        stroke="#333" 
        stroke-width="2"/>
  
  <!-- Tactical Pockets -->
  <rect x="160" y="120" width="25" height="30" fill="#1a1a1a" stroke="#444" stroke-width="1"/>
  <rect x="215" y="120" width="25" height="30" fill="#1a1a1a" stroke="#444" stroke-width="1"/>
  <rect x="160" y="180" width="25" height="35" fill="#1a1a1a" stroke="#444" stroke-width="1"/>
  <rect x="215" y="180" width="25" height="35" fill="#1a1a1a" stroke="#444" stroke-width="1"/>
  
  <!-- Pocket Details -->
  <line x1="172" y1="125" x2="172" y2="145" stroke="#666" stroke-width="1"/>
  <line x1="227" y1="125" x2="227" y2="145" stroke="#666" stroke-width="1"/>
  
  <!-- Brand Text -->
  <text x="200" y="320" text-anchor="middle" fill="#fff" font-family="Arial, sans-serif" font-size="14" font-weight="bold" opacity="0.7">SHADOW TACTICAL</text>
  <text x="200" y="340" text-anchor="middle" fill="#ccc" font-family="Arial, sans-serif" font-size="10" opacity="0.5">PREMIUM CARGO</text>
</svg>
