<svg width="400" height="400" viewBox="0 0 400 400" xmlns="http://www.w3.org/2000/svg">
  <!-- Background -->
  <defs>
    <radialGradient id="bgGradient1" cx="50%" cy="50%" r="50%">
      <stop offset="0%" style="stop-color:#1a1a1a"/>
      <stop offset="100%" style="stop-color:#000000"/>
    </radialGradient>
  </defs>
  
  <rect width="400" height="400" fill="url(#bgGradient1)"/>
  
  <!-- T-Shirt Silhouette -->
  <path d="M120 80 L120 60 C120 50 130 40 140 40 L260 40 C270 40 280 50 280 60 L280 80 L320 100 L320 140 L300 140 L300 350 C300 360 290 370 280 370 L120 370 C110 370 100 360 100 350 L100 140 L80 140 L80 100 Z" 
        fill="#000" 
        stroke="#333" 
        stroke-width="2"/>
  
  <!-- Minimalist Design Elements -->
  <rect x="150" y="180" width="100" height="3" fill="#fff" opacity="0.8"/>
  <rect x="170" y="200" width="60" height="2" fill="#fff" opacity="0.6"/>
  
  <!-- Brand Text -->
  <text x="200" y="320" text-anchor="middle" fill="#fff" font-family="Arial, sans-serif" font-size="14" font-weight="bold" opacity="0.7">SHADOW ESSENCE</text>
  <text x="200" y="340" text-anchor="middle" fill="#ccc" font-family="Arial, sans-serif" font-size="10" opacity="0.5">PREMIUM TEE</text>
</svg>
